<?xml version="1.0" standalone="no"?>
<!DOCTYPE svg PUBLIC "-//W3C//DTD SVG 20010904//EN"
 "http://www.w3.org/TR/2001/REC-SVG-20010904/DTD/svg10.dtd">
<svg version="1.0" xmlns="http://www.w3.org/2000/svg"
 width="1152.000000pt" height="1152.000000pt" viewBox="0 0 1152.000000 1152.000000"
 preserveAspectRatio="xMidYMid meet">
<metadata>
Created by potrace 1.11, written by Peter Selinger 2001-2013
</metadata>
<g transform="translate(0.000000,1152.000000) scale(0.100000,-0.100000)"
fill="#000000" stroke="none">
<path d="M5696 8983 c-16 -9 -70 -49 -119 -90 -48 -40 -95 -79 -103 -86 -9 -7
-23 -19 -33 -27 -9 -8 -39 -33 -66 -55 -28 -21 -52 -42 -55 -45 -3 -3 -27 -24
-55 -45 -27 -22 -52 -42 -55 -45 -3 -3 -30 -25 -60 -50 -30 -25 -57 -47 -60
-50 -3 -4 -27 -23 -53 -43 -42 -31 -52 -35 -73 -25 -13 6 -24 14 -25 17 0 3
-1 78 -2 166 -3 245 -6 248 -292 243 -190 -3 -194 -3 -220 -28 -15 -14 -31
-35 -36 -47 -4 -13 -8 -96 -8 -185 0 -90 0 -172 0 -183 -1 -11 -1 -49 0 -85 0
-36 0 -72 0 -80 1 -242 -3 -318 -19 -342 -9 -14 -57 -58 -107 -99 -49 -40 -96
-79 -103 -86 -8 -8 -30 -26 -50 -41 -21 -15 -44 -34 -52 -42 -8 -8 -37 -33
-65 -55 -27 -22 -56 -45 -62 -51 -7 -7 -16 -14 -21 -16 -4 -1 -21 -20 -36 -41
-81 -107 4 -261 140 -251 27 1 69 19 84 34 3 3 28 23 55 45 28 21 52 42 55 45
3 3 28 23 55 45 28 21 52 42 55 45 3 3 30 25 60 50 30 25 57 47 60 50 3 3 55
46 115 95 61 48 115 93 120 99 6 6 33 29 60 51 28 21 52 42 55 45 3 3 55 46
115 95 114 93 150 123 169 140 6 6 47 39 91 75 44 36 85 69 91 75 6 5 30 26
54 45 24 19 48 40 54 45 56 51 292 239 320 256 35 20 104 28 151 16 11 -3 23
-6 27 -6 5 -1 110 -82 158 -123 20 -18 88 -74 135 -113 244 -201 600 -496 639
-529 26 -22 59 -50 73 -61 33 -26 161 -131 193 -159 14 -12 88 -73 164 -135
76 -63 149 -124 162 -135 76 -69 128 -95 181 -89 115 12 177 123 127 228 -17
36 -18 37 -259 236 -88 72 -161 135 -163 140 -2 5 -8 9 -14 9 -5 0 -15 6 -22
13 -15 14 -37 32 -116 97 -30 25 -57 47 -60 50 -4 5 -136 114 -193 160 -11 8
-24 20 -31 25 -6 6 -36 30 -66 55 -30 25 -57 47 -60 50 -5 5 -91 76 -133 110
-11 8 -24 20 -31 25 -6 6 -47 40 -91 75 -44 36 -82 68 -85 71 -4 6 -52 45
-178 147 -23 19 -50 42 -62 52 -12 10 -39 33 -62 52 -23 18 -72 59 -110 91
-38 31 -80 65 -94 74 -34 22 -122 25 -158 6z"/>
<path d="M5778 8245 c-2 -2 -22 -5 -46 -9 -23 -3 -52 -11 -65 -17 -27 -15
-193 -147 -233 -186 -7 -7 -16 -13 -20 -13 -4 0 -12 -6 -18 -13 -6 -8 -47 -43
-91 -78 -44 -35 -82 -66 -85 -69 -3 -3 -81 -68 -175 -144 -184 -150 -190 -155
-376 -308 -128 -105 -176 -144 -239 -195 -97 -77 -141 -135 -156 -203 -2 -14
-5 -364 -6 -778 0 -826 -4 -778 59 -819 26 -17 108 -18 1438 -19 1567 -1 1451
-6 1487 66 16 31 17 94 17 788 -1 725 -2 756 -21 801 -25 61 -60 98 -193 206
-158 128 -275 224 -291 238 -7 6 -19 17 -26 22 -35 28 -346 282 -363 297 -35
29 -328 268 -380 310 -27 21 -61 50 -75 62 -22 20 -134 68 -142 61z m482
-1102 c8 -4 18 -7 23 -7 4 -1 23 -14 42 -29 47 -37 73 -89 77 -152 1 -25 -15
-82 -29 -105 -19 -31 -39 -49 -78 -75 -16 -11 -31 -25 -32 -31 -1 -6 -5 -24
-8 -40 -3 -16 -8 -49 -11 -73 -3 -25 -7 -47 -9 -51 -2 -3 -6 -24 -10 -47 -22
-149 -33 -188 -65 -216 l-32 -28 -146 5 c-278 11 -397 16 -522 22 -69 3 -134
6 -144 6 -53 -2 -97 56 -110 143 -2 17 -11 62 -20 100 -8 39 -17 83 -20 98 -2
15 -7 35 -10 45 -45 154 -12 215 120 227 33 3 69 7 81 9 12 3 50 7 85 11 35 3
74 8 88 10 14 2 54 7 90 10 36 4 73 9 82 10 9 2 43 6 75 10 32 3 69 8 83 10
14 2 52 6 85 10 37 4 64 12 70 22 40 63 88 99 143 109 15 3 28 7 30 8 3 4 53
-4 72 -11z m-746 -989 c34 -22 58 -67 58 -109 0 -126 -160 -175 -236 -72 -27
37 -27 107 0 144 42 58 122 74 178 37z m553 0 c76 -49 75 -168 -3 -219 -29
-19 -91 -27 -100 -14 -3 5 -9 7 -14 4 -14 -8 -80 63 -82 88 -1 24 -1 56 1 73
2 19 49 67 78 80 33 14 88 9 120 -12z"/>
<path d="M6174 7028 c-53 -24 -57 -110 -6 -140 35 -20 72 -14 100 18 58 65
-14 158 -94 122z"/>
<path d="M10647 4889 c-9 -6 -12 -264 -10 -1136 0 -620 2 -1132 2 -1136 1 -4
48 -7 106 -6 l105 1 -2 1141 -3 1142 -93 0 c-51 0 -98 -3 -105 -6z"/>
<path d="M11308 4875 c-2 -11 -3 -524 -2 -1140 l0 -1120 107 -3 107 -3 -2
1143 -3 1143 -102 0 c-94 0 -102 -2 -105 -20z"/>
<path d="M6801 4805 c1 -5 -1 -21 -4 -35 -4 -14 -9 -36 -11 -50 -2 -14 -9 -44
-15 -68 -7 -24 -14 -55 -16 -70 -3 -15 -9 -47 -16 -72 -6 -25 -12 -54 -14 -65
-1 -11 -17 -83 -35 -160 -17 -77 -33 -151 -36 -165 -3 -14 -7 -34 -9 -45 -2
-11 -13 -60 -24 -110 -12 -49 -24 -101 -27 -115 -37 -171 -45 -210 -50 -240
-3 -19 -8 -39 -11 -43 -3 -5 -7 -23 -10 -40 -2 -18 -8 -45 -13 -62 -5 -16 -11
-46 -14 -66 -3 -20 -8 -42 -10 -50 -3 -8 -7 -25 -10 -39 -2 -14 -10 -47 -16
-75 -6 -27 -14 -59 -16 -70 -3 -11 -7 -29 -9 -40 -8 -40 -15 -71 -29 -136 -8
-36 -17 -77 -20 -90 -7 -40 -57 -263 -61 -276 -3 -9 25 -12 105 -12 118 -1
113 -3 125 59 2 12 7 31 11 43 4 12 8 31 9 42 1 11 5 36 10 55 4 19 9 42 10
50 1 8 8 35 15 60 7 25 14 54 15 65 2 11 6 31 9 45 4 14 9 39 12 55 3 17 18
89 34 160 16 72 31 141 34 155 2 14 10 48 16 75 13 57 18 79 25 115 14 72 105
484 108 486 2 2 14 -27 27 -64 13 -37 26 -71 30 -77 4 -5 15 -32 25 -60 9 -27
24 -66 32 -85 26 -61 31 -73 73 -185 40 -102 177 -455 195 -500 4 -11 9 -25
10 -30 2 -6 12 -32 24 -57 11 -26 21 -51 21 -55 1 -4 9 -26 20 -48 11 -22 19
-44 20 -48 0 -4 29 -81 64 -170 34 -89 66 -171 70 -181 7 -19 7 -19 20 0 7 10
15 28 19 39 3 11 23 65 45 120 21 55 62 161 91 235 28 74 60 153 71 176 11 23
20 45 20 50 0 4 48 130 106 278 58 149 125 321 148 381 24 61 47 119 51 130 5
11 9 22 10 25 1 3 5 14 10 25 4 11 16 40 26 65 10 25 19 37 20 28 2 -28 4 -32
12 -45 5 -7 6 -13 4 -13 -3 0 4 -37 14 -82 23 -102 50 -226 55 -253 4 -23 37
-167 54 -240 7 -27 14 -63 17 -80 2 -16 9 -48 15 -70 13 -53 18 -73 23 -114 3
-18 7 -36 10 -40 2 -4 7 -22 10 -39 3 -17 12 -62 20 -99 9 -37 18 -79 21 -93
3 -13 12 -56 21 -95 8 -38 19 -90 24 -115 18 -86 8 -80 130 -79 103 1 108 2
99 19 -6 11 -9 23 -8 27 2 7 -6 48 -32 158 -6 22 -12 51 -14 65 -2 14 -10 48
-16 75 -7 28 -14 59 -15 70 -2 11 -8 38 -13 60 -6 22 -13 51 -15 65 -4 21 -39
185 -52 240 -13 56 -37 168 -39 185 -2 11 -6 27 -9 35 -3 8 -8 31 -11 50 -3
19 -8 44 -10 55 -8 29 -116 526 -120 552 -3 13 -7 26 -9 30 -3 5 -8 25 -11 47
-4 21 -18 88 -31 150 -14 61 -28 124 -31 140 -3 16 -7 32 -9 36 -2 4 -7 25
-10 46 -2 21 -8 52 -13 68 l-8 29 -22 -51 c-12 -28 -22 -57 -22 -64 0 -8 -4
-18 -8 -24 -5 -5 -17 -31 -26 -59 -10 -27 -22 -59 -27 -70 -5 -11 -20 -51 -34
-90 -14 -38 -30 -79 -35 -90 -5 -11 -32 -83 -61 -160 -28 -77 -56 -144 -60
-149 -5 -6 -9 -16 -9 -23 0 -7 -20 -63 -44 -125 -25 -62 -97 -250 -161 -418
-151 -397 -168 -440 -171 -437 -1 1 -32 81 -68 177 -89 232 -145 380 -156 405
-4 11 -18 47 -30 80 -12 33 -26 69 -30 80 -5 11 -27 67 -49 125 -46 122 -133
349 -166 435 -13 33 -46 121 -74 195 -29 74 -54 142 -58 150 -3 8 -7 18 -7 22
-1 3 -4 10 -8 14 -5 4 -8 15 -8 24 0 9 -7 25 -15 36 -8 10 -14 15 -14 9z"/>
<path d="M1017 4714 c-1 -1 -33 -4 -72 -7 -71 -7 -203 -38 -259 -61 -149 -63
-273 -144 -370 -241 -39 -39 -78 -79 -86 -90 -218 -282 -284 -644 -180 -983
68 -219 225 -431 414 -556 93 -62 217 -126 244 -126 10 0 22 -4 27 -9 9 -8 82
-28 130 -36 148 -26 309 -21 440 12 33 8 67 16 75 18 26 5 125 46 135 56 5 5
17 9 27 9 10 0 18 4 18 9 0 5 10 13 21 16 42 14 145 91 219 165 76 76 120 126
120 135 0 3 9 16 20 28 12 12 33 45 48 75 15 29 33 64 40 77 20 38 58 147 71
202 21 93 23 109 24 228 2 161 -13 254 -60 380 -30 79 -73 168 -85 173 -4 2
-8 8 -8 12 0 11 -34 62 -81 121 -144 184 -381 325 -624 373 -64 13 -239 27
-248 20z m273 -243 c324 -96 564 -363 616 -686 8 -52 9 -175 1 -245 -26 -235
-169 -460 -385 -603 -31 -20 -62 -42 -69 -47 -7 -6 -16 -10 -21 -10 -5 0 -31
-9 -57 -21 -159 -70 -428 -73 -611 -6 -51 19 -144 66 -160 81 -6 6 -22 18 -35
26 -48 30 -186 177 -227 240 -87 134 -131 305 -126 480 2 52 5 102 7 110 2 8
9 42 16 74 21 97 89 232 161 319 22 29 131 133 160 154 43 32 129 85 142 87 7
1 24 8 37 15 13 7 64 23 115 36 125 31 324 29 436 -4z"/>
<path d="M4565 3983 c-192 -31 -343 -117 -462 -263 -169 -208 -201 -510 -79
-749 29 -56 36 -67 73 -107 12 -13 20 -24 17 -24 -7 0 56 -61 107 -103 25 -20
51 -37 58 -37 6 0 11 -4 11 -8 0 -8 120 -64 144 -68 6 -1 31 -7 56 -14 25 -7
100 -14 166 -16 106 -2 131 1 194 22 187 63 308 159 403 322 23 39 31 62 24
65 -7 2 -60 3 -119 3 l-106 -1 -59 -56 c-107 -102 -223 -148 -361 -143 -181 7
-349 117 -420 274 -16 37 -42 107 -42 115 0 1 260 2 578 3 317 0 583 1 591 1
25 2 9 220 -23 316 -45 132 -146 262 -273 352 -69 49 -182 96 -266 109 -39 7
-185 11 -212 7z m220 -229 c27 -8 64 -23 82 -32 113 -60 229 -207 248 -314 l5
-27 -470 0 c-512 0 -483 -4 -459 56 24 59 35 80 68 128 53 77 137 148 208 176
92 36 225 41 318 13z"/>
<path d="M3023 3967 c-28 -7 -55 -15 -59 -19 -4 -5 -16 -8 -26 -8 -10 0 -18
-4 -18 -9 0 -5 -14 -14 -30 -21 -33 -14 -119 -94 -161 -149 l-25 -34 2 111 2
112 -107 0 -108 0 0 -670 0 -670 96 0 c53 0 101 4 107 8 7 5 10 108 10 312 1
350 5 407 39 520 1 3 5 19 10 35 4 17 11 32 14 35 3 3 15 22 25 42 29 58 108
133 170 162 139 66 315 49 378 -35 25 -33 59 -93 58 -104 0 -3 0 -6 1 -7 9
-31 11 -114 14 -488 2 -245 3 -453 4 -462 1 -16 13 -18 106 -18 l105 0 0 452
c0 488 -4 542 -51 646 -54 120 -142 203 -258 242 -77 26 -224 34 -298 17z"/>
<path d="M9325 3966 c-140 -33 -267 -117 -367 -244 -58 -72 -111 -191 -132
-295 -13 -66 -14 -232 -2 -292 53 -249 232 -454 459 -527 80 -26 246 -31 326
-11 119 31 222 93 318 193 l43 45 -2 -110 -1 -110 106 -2 c95 -2 107 -1 108
15 0 23 0 1215 0 1275 l-1 47 -105 0 c-102 0 -105 -1 -106 -22 0 -13 0 -63 0
-113 l0 -90 -47 51 c-82 87 -162 140 -265 175 -81 27 -247 34 -332 15z m285
-210 c19 -5 40 -11 45 -14 6 -4 16 -7 23 -8 48 -8 180 -129 227 -208 53 -90
75 -250 50 -360 -10 -46 -46 -128 -74 -166 -127 -175 -302 -238 -520 -186
-134 32 -272 179 -322 344 -11 39 -15 185 -6 222 15 58 24 81 49 131 28 54
137 179 157 179 5 0 16 7 24 15 9 8 47 25 86 38 75 24 188 30 261 13z"/>
</g>
</svg>
